::Cover:: 
http://img713.imageshack.us/img713/4935/rahulcase.png

::General::
Unique ID                        : 172238848383850327754974752856544493121 (0x8193FEDD9ADD5FF7AD77FB910B09BE41)
Complete name                    : Birdman - Fire Flame (Remix) ft. Lil Wayne HD 720p(RaHuL {tHe HuNk})[Silver RG]Birdman - Fire Flame (Remix) ft. Lil Wayne HD 720p(RaHuL {tHe HuNk})[Silver RG].mkv
Format                           : Matroska
File size                        : 81.9 MiB
Duration                         : 5mn 7s
Overall bit rate                 : 2 236 Kbps
Encoded date                     : UTC 2011-02-13 16:20:26
Writing application              : mkvmerge v3.3.0 ('Language') built on Mar 24 2010 14:59:24
Writing library                  : libebml v0.8.0 + libmatroska v0.9.0


::Video::
ID                               : 1
Format                           : AVC
Format/Info                      : Advanced Video Codec
Format profile                   : High@L3.1
Format settings, CABAC           : Yes
Format settings, ReFrames        : 4 frames
Codec ID                         : V_MPEG4/ISO/AVC
Duration                         : 5mn 7s
Bit rate                         : 1 945 Kbps
Width                            : 1 280 pixels
Height                           : 720 pixels
Display aspect ratio             : 16:9
Frame rate                       : 23.976 fps
Color space                      : YUV
Chroma subsampling               : 4:2:0
Bit depth                        : 8 bits
Scan type                        : Progressive
Bits/(Pixel*Frame)               : 0.088
Stream size                      : 71.2 MiB (87%)
Writing library                  : Vimeo Encoder


::Audio::
ID                               : 2
Format                           : MPEG Audio
Format version                   : Version 1
Format profile                   : Layer 3
Codec ID                         : A_MPEG/L3
Codec ID/Hint                    : MP3
Duration                         : 5mn 7s
Bit rate mode                    : Variable
Bit rate                         : 246 Kbps
Minimum bit rate                 : 32.0 Kbps
Channel(s)                       : 2 channels
Sampling rate                    : 44.1 KHz
Compression mode                 : Lossy
Delay relative to video          : -2s 0ms
Stream size                      : 9.00 MiB (11%)
Writing library                  : LAME3.98r
Encoding settings                : -m s -V 0 -q 0 -lowpass 19.5 --vbr-new -b 32

:: Trackers :: 
http://exodus.1337x.org/announce 
http://tracker.publicbt.com/announce 
http://genesis.1337x.org:1337/announce 
http://exodus.1337x.org:1337/announce 
http://pow7.com/announce 
http://tracker.publicbt.com:80/announce 
http://tracker.publicbt.com/announce 
http://nemesis.1337x.org/announce

::Cover:: 
http://img4.imageshack.us/img4/5451/birdmanfireflameremixft.jpg

::Note::
Make sure its real Silver RG Release From Silvertorrents.me